<svg xmlns="http://www.w3.org/2000/svg" width="209" height="190" viewBox="0 0 209 190" fill="none">
<path d="M194.5 0H14.5C11.7386 0 9.5 2.23858 9.5 5V185C9.5 187.761 11.7386 190 14.5 190H194.5C197.261 190 199.5 187.761 199.5 185V5C199.5 2.23858 197.261 0 194.5 0Z" fill="#202024"/>
<path fill-rule="evenodd" clip-rule="evenodd" d="M138.236 52.996C138.236 55.8587 139.423 57.2869 141.795 57.2869C143.223 57.2869 144.785 56.8342 146.482 55.9289L148.631 62.1389C146.035 63.5289 143.587 64.2302 141.291 64.2302C137.943 64.2302 135.354 63.3057 133.524 61.4631C131.7 59.6205 130.788 56.9809 130.788 53.557V41.3091H124.743V35.2138H130.788V24.9933L138.243 22.7362V35.2138H149.141V41.3091H138.243V52.996H138.236ZM89.6388 50.9047H68.1808C68.5571 52.9003 69.3924 54.4879 70.6933 55.6738C71.9942 56.8597 73.5055 57.4527 75.24 57.4527C78.4411 57.4527 80.775 56.2094 82.2417 53.7228L88.9055 55.1319C87.7003 57.9946 85.9147 60.156 83.5426 61.6288C81.1704 63.0953 78.4029 63.8285 75.24 63.8285C71.1716 63.8285 67.7472 62.4386 64.9606 59.6523C62.1739 56.8661 60.7837 53.2892 60.7837 48.9218C60.7837 44.5543 62.1866 40.9711 64.9924 38.1658C67.7982 35.3604 71.2545 33.9577 75.3548 33.9577C79.1936 33.9577 82.4968 35.303 85.2643 37.9936C88.0319 40.6842 89.4921 44.1399 89.6388 48.3543V50.9047ZM71.0313 41.8127C69.6921 42.7181 68.8185 43.9933 68.404 45.651H82.0121C81.5594 43.9168 80.7304 42.6225 79.5252 41.7554C78.32 40.8882 76.9298 40.4547 75.3484 40.4547C73.8052 40.4547 72.3704 40.9074 71.0313 41.8127ZM53.8904 38.1148C55.9628 40.3144 56.9959 43.1708 56.9959 46.6711V63.8349H49.5414V48.246C49.5414 46.2503 49.0249 44.65 47.9854 43.445C46.9524 42.2399 45.5686 41.6406 43.8341 41.6406C39.1663 41.6406 36.8324 44.8795 36.8324 51.351V63.8285H29.3779V35.6537H36.8324V38.1976C39.0898 35.9406 42.0486 34.8121 45.6962 34.8121C49.0886 34.8057 51.8179 35.9087 53.8904 38.1148ZM113.023 63.8349H121.886L111.837 50.1141L121.886 35.6601H113.023L106.301 45.3705L99.6377 35.6601H90.7739L100.824 50.1141L90.7739 63.8349H99.6377L106.301 54.6282L113.023 63.8349ZM47.5 73.1755V113.477H54.9545V73.1755H47.5ZM88.3307 100.547H66.8727C67.2489 102.543 68.0843 104.13 69.3852 105.316C70.686 106.502 72.1973 107.095 73.9318 107.095C77.133 107.095 79.4669 105.852 80.9336 103.365L87.5973 104.774C86.3921 107.637 84.6066 109.798 82.2344 111.271C79.8623 112.738 77.0947 113.471 73.9318 113.471C69.8634 113.471 66.4391 112.081 63.6524 109.295C60.8657 106.508 59.4756 102.932 59.4756 98.5641C59.4756 94.1966 60.8785 90.6134 63.6843 87.8081C66.4901 85.0027 69.9463 83.6 74.0466 83.6C77.8854 83.6 81.1886 84.9453 83.9562 87.6359C86.7237 90.3265 88.184 93.7822 88.3307 97.9966V100.547ZM69.7231 91.455C68.384 92.3604 67.5104 93.6356 67.0959 95.2933H80.704C80.2512 93.5591 79.4223 92.2648 78.217 91.3977C77.0118 90.5305 75.6217 90.097 74.0402 90.097C72.5034 90.1034 71.0623 90.556 69.7231 91.455ZM88.6178 85.245L101.55 113.477H107.085L120.017 85.245H112.053L104.317 102.638L96.5824 85.245H88.6178ZM149.159 100.547H127.701C128.077 102.543 128.913 104.13 130.214 105.316C131.515 106.502 133.026 107.095 134.76 107.095C137.961 107.095 140.295 105.852 141.762 103.365L148.426 104.774C147.221 107.637 145.435 109.798 143.063 111.271C140.691 112.738 137.923 113.471 134.76 113.471C130.692 113.471 127.268 112.081 124.481 109.295C121.694 106.508 120.304 102.932 120.304 98.5641C120.304 94.1966 121.707 90.6134 124.513 87.8081C127.319 85.0027 130.775 83.6 134.875 83.6C138.714 83.6 142.017 84.9453 144.785 87.6359C147.552 90.3265 149.012 93.7822 149.159 97.9966V100.547ZM130.552 91.455C129.212 92.3604 128.339 93.6356 127.924 95.2933H141.532C141.08 93.5591 140.251 92.2648 139.046 91.3977C137.84 90.5305 136.45 90.097 134.869 90.097C133.326 90.1034 131.884 90.556 130.552 91.455ZM153.68 73.1755V113.477H161.135V73.1755H153.68ZM62.7159 160.276H56.4985L50.4023 143.673L44.2486 160.276H38.0376L27.586 132.044H35.5507L41.4237 148.927L47.4689 132.044H53.2846L59.3298 148.984L65.2028 132.044H73.1675L62.7159 160.276ZM81.4127 147.346H102.871V144.795C102.724 140.581 101.264 137.125 98.4962 134.435C95.7287 131.744 92.4255 130.399 88.5867 130.399C84.4864 130.399 81.0301 131.801 78.2243 134.607C75.4185 137.412 74.0156 140.995 74.0156 145.363C74.0156 149.73 75.4058 153.307 78.1924 156.093C80.9791 158.88 84.4035 160.269 88.4719 160.269C91.6348 160.269 94.4023 159.536 96.7745 158.07C99.1467 156.597 100.932 154.436 102.137 151.573L95.4736 150.164C94.007 152.65 91.673 153.894 88.4719 153.894C86.7374 153.894 85.2261 153.301 83.9252 152.115C82.6243 150.929 81.789 149.341 81.4127 147.346ZM81.6359 142.092C82.0504 140.434 82.924 139.159 84.2632 138.254C85.5959 137.355 87.0371 136.902 88.5803 136.896C90.1617 136.896 91.5519 137.329 92.7571 138.196C93.9623 139.063 94.7913 140.358 95.244 142.092H81.6359ZM133.989 147.346H112.532C112.908 149.341 113.743 150.929 115.044 152.115C116.345 153.301 117.856 153.894 119.591 153.894C122.792 153.894 125.126 152.65 126.592 150.164L133.256 151.573C132.051 154.436 130.265 156.597 127.893 158.07C125.521 159.536 122.754 160.269 119.591 160.269C115.522 160.269 112.098 158.88 109.311 156.093C106.525 153.307 105.134 149.73 105.134 145.363C105.134 140.995 106.537 137.412 109.343 134.607C112.149 131.801 115.605 130.399 119.705 130.399C123.544 130.399 126.847 131.744 129.615 134.435C132.383 137.125 133.843 140.581 133.989 144.795V147.346ZM115.382 138.254C114.043 139.159 113.169 140.434 112.755 142.092H126.363C125.91 140.358 125.081 139.063 123.876 138.196C122.671 137.329 121.281 136.896 119.699 136.896C118.156 136.902 116.715 137.355 115.382 138.254ZM144.607 160.276V149.603L155.907 160.269H166.071L151.385 146.153L164.994 132.095H155.562L144.607 143.163V119.949H137.152V160.276H144.607Z" fill="white"/>
<path fill-rule="evenodd" clip-rule="evenodd" d="M21.4006 45.1537V37.4198L0.0423973 45.3675L0 45.3513V45.3832V53.2574V53.2893L0.0424068 53.2732L21.4006 61.2208V53.4869L10.4404 49.3203L21.4006 45.1537ZM187.593 161.704V153.97L198.545 149.807L187.593 145.643V137.909L208.943 145.854L208.994 145.835V145.873V153.741V153.779L208.943 153.76L187.593 161.704ZM166.25 110.438V116.59H189.978V110.438H166.25ZM20.1875 117.778V111.625H43.9156V117.778H20.1875ZM178.423 126.968L165.867 167.27H173.322L185.878 126.968H178.423Z" fill="#7159C1"/>
<rect x="173" y="37" width="36" height="22.5" rx="5" fill="#7159C1"/>
<path d="M184.147 50.0474H182.875L182.4 52.75H181.194L181.668 50.0474H180.172V48.9136H181.866L182.196 47.0415H180.666V45.8945H182.4L182.881 43.1523H184.081L183.6 45.8945H184.878L185.36 43.1523H186.566L186.085 45.8945H187.528V47.0415H185.88L185.551 48.9136H187.027V50.0474H185.353L184.878 52.75H183.672L184.147 50.0474ZM183.072 48.9136H184.344L184.674 47.0415H183.395L183.072 48.9136Z" fill="white"/>
<path d="M194.905 48.7817C194.905 50.1089 194.63 51.124 194.081 51.8271C193.531 52.5303 192.727 52.8818 191.668 52.8818C190.622 52.8818 189.822 52.5369 189.269 51.8469C188.715 51.157 188.431 50.1682 188.418 48.8806V47.114C188.418 45.7737 188.695 44.7563 189.249 44.062C189.807 43.3677 190.609 43.0205 191.655 43.0205C192.701 43.0205 193.5 43.3655 194.054 44.0554C194.608 44.741 194.891 45.7275 194.905 47.0151V48.7817ZM193 46.8438C193 46.0483 192.89 45.4705 192.67 45.1101C192.455 44.7454 192.116 44.563 191.655 44.563C191.207 44.563 190.875 44.7366 190.659 45.0837C190.448 45.4265 190.336 45.9648 190.323 46.6987V49.0322C190.323 49.8145 190.429 50.3967 190.64 50.7791C190.855 51.157 191.198 51.3459 191.668 51.3459C192.134 51.3459 192.47 51.1636 192.677 50.7988C192.883 50.4341 192.991 49.876 193 49.1245V46.8438Z" fill="white"/>
<path d="M200.824 52.75H198.919V45.4067L196.645 46.1121V44.563L200.62 43.1392H200.824V52.75Z" fill="white"/>
</svg>