<svg width="375" height="812" viewBox="0 0 375 812" fill="none" xmlns="http://www.w3.org/2000/svg">
<rect width="375" height="812" fill="#F0F0F5"/>
<path d="M162.597 321.739L150.85 344.126C150.091 345.571 150.591 347.378 151.973 348.191L170.368 359.003C171.769 359.827 173.551 359.32 174.348 357.871L196.832 317.001H170.296C167.084 317.001 164.129 318.82 162.597 321.739Z" fill="#29A361"/>
<path d="M196.832 317L174.349 357.87C173.55 359.319 171.77 359.827 170.369 359.004L165.567 356.183C166.738 356.377 167.956 355.821 168.576 354.693L189.316 317H196.832Z" fill="#248F55"/>
<path d="M221.433 338.676L213.331 321.994C211.844 318.933 208.815 317.001 205.503 317.001H182.077L200.064 348.56C200.005 348.587 199.945 348.615 199.886 348.642C198.755 349.169 198.801 350.847 199.96 351.307L215.491 357.476C216.211 357.761 217.019 357.39 217.295 356.646L223.282 340.522C223.725 339.329 222.563 338.178 221.433 338.676Z" fill="#34CB79"/>
<path d="M223.283 340.52L217.294 356.644C217.018 357.39 216.21 357.762 215.491 357.475L210.791 355.608L216.393 340.52C216.712 339.665 216.203 338.831 215.473 338.613C214.778 338.404 214.185 337.934 213.86 337.265L206.441 321.993C204.956 318.934 201.928 317 198.615 317H205.504C208.815 317 211.843 318.934 213.331 321.993L221.433 338.677C222.564 338.179 223.724 339.328 223.283 340.52Z" fill="#2FB86E"/>
<path d="M205.781 402.993C205.563 402.066 204.408 401.67 203.702 402.399L191.563 414.953C191.079 415.454 191.079 416.265 191.563 416.766L203.749 429.368C204.45 430.092 205.593 429.706 205.823 428.795H223.744C227.043 428.795 230.063 426.878 231.556 423.836L241.781 402.992H205.781V402.993Z" fill="#29A361"/>
<path d="M220.91 402.993L226.72 412.086C228.034 414.141 228.179 416.768 227.101 418.966L224.711 423.836C223.221 426.878 220.2 428.796 216.902 428.796H223.744C227.042 428.796 230.063 426.878 231.556 423.836L241.781 402.993H220.91V402.993Z" fill="#248F55"/>
<path d="M181.325 426.399V404.213C181.325 402.546 180.018 401.194 178.405 401.194H130.309L142.687 424.693C144.221 427.606 147.171 429.419 150.379 429.419H178.405C180.017 429.419 181.325 428.067 181.325 426.399Z" fill="#29A361"/>
<path d="M150.707 401.196L140.025 419.644L130.309 401.196H150.707Z" fill="#248F55"/>
<path d="M181.324 404.214V426.401C181.324 428.068 180.017 429.42 178.405 429.42H170.745C172.357 429.42 173.663 428.068 173.663 426.401V404.214C173.663 402.547 172.357 401.196 170.745 401.196H178.405C180.017 401.195 181.324 402.547 181.324 404.214Z" fill="#248F55"/>
<path d="M157.829 381.59L155.669 364.781C155.562 363.951 154.824 363.367 154.022 363.477L137.705 365.719C136.476 365.888 136.018 367.434 136.86 368.294L126.563 383.643C124.675 386.457 124.483 390.132 126.067 393.139L137.273 414.415L155.468 382.984C155.474 382.989 155.481 382.994 155.487 382.999C156.526 383.814 158 382.927 157.829 381.59Z" fill="#34CB79"/>
<path d="M155.486 382.999C155.481 382.994 155.474 382.989 155.469 382.983L137.273 414.413L133.531 407.309L148.341 381.723L148.752 381.013C148.976 380.625 149.415 380.458 149.844 380.544C149.847 380.544 149.849 380.544 149.851 380.545C150.764 380.713 151.701 379.927 151.56 378.847L149.663 364.074L154.02 363.477C154.824 363.367 155.563 363.951 155.67 364.78L157.83 381.591C158.001 382.927 156.525 383.814 155.486 382.999Z" fill="#2FB86E"/>
<path d="M246.704 382.488L232.618 361.38C231.754 360.086 230.073 359.694 228.756 360.48L210.399 371.435C208.942 372.304 208.495 374.264 209.422 375.715L235.3 416.204L247.306 391.731C248.759 388.769 248.528 385.222 246.704 382.488Z" fill="#34CB79"/>
<path d="M247.306 391.731L235.298 416.203L231.271 409.899L240.184 391.731C241.637 388.768 241.406 385.222 239.581 382.488L225.994 362.129L228.756 360.48C230.073 359.693 231.755 360.085 232.618 361.381L246.704 382.488C248.529 385.222 248.759 388.769 247.306 391.731Z" fill="#2FB86E"/>
<path d="M138.395 484.362C138.263 485.49 137.846 486.362 137.143 486.977C136.444 487.587 135.514 487.892 134.352 487.892C133.092 487.892 132.082 487.441 131.32 486.537C130.563 485.634 130.185 484.426 130.185 482.912V481.886C130.185 480.895 130.36 480.024 130.712 479.272C131.068 478.52 131.571 477.944 132.221 477.543C132.87 477.138 133.622 476.935 134.477 476.935C135.609 476.935 136.518 477.253 137.201 477.887C137.885 478.517 138.283 479.391 138.395 480.51H136.981C136.859 479.66 136.593 479.045 136.183 478.664C135.778 478.283 135.209 478.093 134.477 478.093C133.578 478.093 132.873 478.425 132.36 479.089C131.852 479.753 131.598 480.698 131.598 481.923V482.956C131.598 484.113 131.84 485.033 132.323 485.717C132.807 486.401 133.483 486.742 134.352 486.742C135.133 486.742 135.731 486.567 136.146 486.215C136.566 485.859 136.845 485.241 136.981 484.362H138.395ZM145.001 487.746C144.923 487.59 144.86 487.311 144.811 486.911C144.181 487.565 143.429 487.892 142.555 487.892C141.774 487.892 141.132 487.673 140.629 487.233C140.131 486.789 139.882 486.227 139.882 485.549C139.882 484.723 140.194 484.084 140.819 483.63C141.449 483.171 142.333 482.941 143.471 482.941H144.789V482.319C144.789 481.845 144.647 481.469 144.364 481.191C144.081 480.907 143.664 480.766 143.112 480.766C142.628 480.766 142.223 480.888 141.896 481.132C141.569 481.376 141.405 481.672 141.405 482.018H140.043C140.043 481.623 140.182 481.242 140.46 480.876C140.744 480.505 141.125 480.212 141.603 479.997C142.086 479.782 142.616 479.675 143.192 479.675C144.105 479.675 144.821 479.904 145.338 480.363C145.856 480.817 146.125 481.445 146.144 482.245V485.893C146.144 486.62 146.237 487.199 146.422 487.629V487.746H145.001ZM142.753 486.713C143.178 486.713 143.581 486.603 143.961 486.384C144.342 486.164 144.618 485.878 144.789 485.527V483.901H143.727C142.067 483.901 141.237 484.386 141.237 485.358C141.237 485.783 141.378 486.115 141.662 486.354C141.945 486.594 142.309 486.713 142.753 486.713ZM152.099 481.037C151.894 481.003 151.671 480.986 151.432 480.986C150.543 480.986 149.94 481.364 149.623 482.121V487.746H148.268V479.821H149.586L149.608 480.737C150.053 480.029 150.683 479.675 151.498 479.675C151.762 479.675 151.962 479.709 152.099 479.777V481.037ZM157.182 481.037C156.977 481.003 156.754 480.986 156.515 480.986C155.626 480.986 155.023 481.364 154.706 482.121V487.746H153.351V479.821H154.669L154.691 480.737C155.136 480.029 155.766 479.675 156.581 479.675C156.845 479.675 157.045 479.709 157.182 479.777V481.037ZM161.576 487.892C160.502 487.892 159.628 487.541 158.954 486.838C158.28 486.13 157.943 485.185 157.943 484.003V483.754C157.943 482.968 158.092 482.267 158.39 481.652C158.693 481.032 159.113 480.549 159.65 480.202C160.192 479.85 160.778 479.675 161.408 479.675C162.438 479.675 163.239 480.014 163.81 480.693C164.381 481.371 164.667 482.343 164.667 483.608V484.172H159.298C159.318 484.953 159.545 485.585 159.979 486.069C160.419 486.547 160.976 486.786 161.649 486.786C162.128 486.786 162.533 486.689 162.865 486.493C163.197 486.298 163.488 486.039 163.737 485.717L164.564 486.362C163.9 487.382 162.904 487.892 161.576 487.892ZM161.408 480.788C160.861 480.788 160.402 480.988 160.031 481.388C159.66 481.784 159.43 482.341 159.342 483.058H163.312V482.956C163.273 482.267 163.087 481.735 162.755 481.359C162.423 480.978 161.974 480.788 161.408 480.788ZM165.919 483.718C165.919 482.482 166.205 481.501 166.776 480.773C167.348 480.041 168.104 479.675 169.047 479.675C170.014 479.675 170.768 480.016 171.31 480.7L171.376 479.821H172.614V487.555C172.614 488.581 172.309 489.389 171.698 489.98C171.093 490.571 170.277 490.866 169.252 490.866C168.681 490.866 168.122 490.744 167.575 490.5C167.028 490.256 166.61 489.921 166.322 489.496L167.025 488.683C167.606 489.401 168.317 489.76 169.157 489.76C169.816 489.76 170.329 489.574 170.695 489.203C171.066 488.832 171.251 488.31 171.251 487.636V486.955C170.709 487.58 169.97 487.892 169.032 487.892C168.104 487.892 167.353 487.519 166.776 486.772C166.205 486.025 165.919 485.007 165.919 483.718ZM167.282 483.871C167.282 484.765 167.465 485.468 167.831 485.981C168.197 486.489 168.71 486.742 169.369 486.742C170.224 486.742 170.851 486.354 171.251 485.578V481.96C170.836 481.203 170.214 480.824 169.384 480.824C168.725 480.824 168.209 481.081 167.838 481.594C167.467 482.106 167.282 482.865 167.282 483.871ZM179.557 487.746C179.479 487.59 179.416 487.311 179.367 486.911C178.737 487.565 177.985 487.892 177.111 487.892C176.33 487.892 175.688 487.673 175.185 487.233C174.687 486.789 174.438 486.227 174.438 485.549C174.438 484.723 174.75 484.084 175.375 483.63C176.005 483.171 176.889 482.941 178.026 482.941H179.345V482.319C179.345 481.845 179.203 481.469 178.92 481.191C178.637 480.907 178.219 480.766 177.667 480.766C177.184 480.766 176.779 480.888 176.452 481.132C176.125 481.376 175.961 481.672 175.961 482.018H174.599C174.599 481.623 174.738 481.242 175.016 480.876C175.299 480.505 175.68 480.212 176.159 479.997C176.642 479.782 177.172 479.675 177.748 479.675C178.661 479.675 179.376 479.904 179.894 480.363C180.412 480.817 180.68 481.445 180.7 482.245V485.893C180.7 486.62 180.792 487.199 180.978 487.629V487.746H179.557ZM177.309 486.713C177.733 486.713 178.136 486.603 178.517 486.384C178.898 486.164 179.174 485.878 179.345 485.527V483.901H178.283C176.623 483.901 175.792 484.386 175.792 485.358C175.792 485.783 175.934 486.115 176.217 486.354C176.5 486.594 176.864 486.713 177.309 486.713ZM184.105 479.821L184.149 480.817C184.755 480.055 185.546 479.675 186.522 479.675C188.197 479.675 189.042 480.619 189.057 482.509V487.746H187.702V482.502C187.697 481.93 187.565 481.508 187.306 481.235C187.052 480.961 186.654 480.824 186.112 480.824C185.673 480.824 185.287 480.942 184.955 481.176C184.623 481.41 184.364 481.718 184.179 482.099V487.746H182.824V479.821H184.105ZM190.771 483.718C190.771 482.502 191.059 481.525 191.635 480.788C192.211 480.046 192.965 479.675 193.898 479.675C194.826 479.675 195.561 479.992 196.103 480.627V476.496H197.458V487.746H196.212L196.146 486.896C195.604 487.56 194.85 487.892 193.883 487.892C192.965 487.892 192.216 487.516 191.635 486.764C191.059 486.012 190.771 485.031 190.771 483.82V483.718ZM192.125 483.871C192.125 484.77 192.311 485.473 192.682 485.981C193.053 486.489 193.566 486.742 194.22 486.742C195.08 486.742 195.707 486.357 196.103 485.585V481.945C195.697 481.198 195.075 480.824 194.235 480.824C193.571 480.824 193.053 481.081 192.682 481.594C192.311 482.106 192.125 482.865 192.125 483.871ZM199.208 483.71C199.208 482.934 199.359 482.236 199.662 481.615C199.97 480.995 200.395 480.517 200.937 480.18C201.483 479.843 202.106 479.675 202.804 479.675C203.883 479.675 204.755 480.048 205.419 480.795C206.088 481.542 206.422 482.536 206.422 483.776V483.871C206.422 484.643 206.273 485.336 205.976 485.951C205.683 486.562 205.26 487.038 204.708 487.38C204.162 487.721 203.532 487.892 202.819 487.892C201.745 487.892 200.873 487.519 200.204 486.772C199.54 486.025 199.208 485.036 199.208 483.805V483.71ZM200.57 483.871C200.57 484.75 200.773 485.456 201.178 485.988C201.588 486.52 202.135 486.786 202.819 486.786C203.507 486.786 204.054 486.518 204.459 485.981C204.865 485.439 205.067 484.682 205.067 483.71C205.067 482.841 204.86 482.138 204.445 481.601C204.035 481.059 203.488 480.788 202.804 480.788C202.135 480.788 201.596 481.054 201.186 481.586C200.775 482.118 200.57 482.88 200.57 483.871ZM216.735 487.746C216.657 487.59 216.593 487.311 216.544 486.911C215.915 487.565 215.163 487.892 214.289 487.892C213.507 487.892 212.865 487.673 212.362 487.233C211.864 486.789 211.615 486.227 211.615 485.549C211.615 484.723 211.928 484.084 212.553 483.63C213.183 483.171 214.066 482.941 215.204 482.941H216.522V482.319C216.522 481.845 216.381 481.469 216.098 481.191C215.814 480.907 215.397 480.766 214.845 480.766C214.362 480.766 213.957 480.888 213.629 481.132C213.302 481.376 213.139 481.672 213.139 482.018H211.776C211.776 481.623 211.916 481.242 212.194 480.876C212.477 480.505 212.858 480.212 213.336 479.997C213.82 479.782 214.35 479.675 214.926 479.675C215.839 479.675 216.554 479.904 217.072 480.363C217.589 480.817 217.858 481.445 217.877 482.245V485.893C217.877 486.62 217.97 487.199 218.156 487.629V487.746H216.735ZM214.486 486.713C214.911 486.713 215.314 486.603 215.695 486.384C216.076 486.164 216.352 485.878 216.522 485.527V483.901H215.46C213.8 483.901 212.97 484.386 212.97 485.358C212.97 485.783 213.112 486.115 213.395 486.354C213.678 486.594 214.042 486.713 214.486 486.713ZM226.696 483.871C226.696 485.077 226.42 486.049 225.868 486.786C225.316 487.524 224.569 487.892 223.627 487.892C222.665 487.892 221.908 487.587 221.356 486.977V490.793H220.001V479.821H221.239L221.305 480.7C221.857 480.016 222.624 479.675 223.605 479.675C224.557 479.675 225.309 480.033 225.861 480.751C226.417 481.469 226.696 482.468 226.696 483.747V483.871ZM225.341 483.718C225.341 482.824 225.15 482.118 224.77 481.601C224.389 481.083 223.866 480.824 223.202 480.824C222.382 480.824 221.767 481.188 221.356 481.916V485.702C221.762 486.425 222.382 486.786 223.217 486.786C223.866 486.786 224.381 486.53 224.762 486.017C225.148 485.5 225.341 484.733 225.341 483.718ZM235.119 483.871C235.119 485.077 234.843 486.049 234.291 486.786C233.739 487.524 232.992 487.892 232.05 487.892C231.088 487.892 230.331 487.587 229.779 486.977V490.793H228.424V479.821H229.662L229.728 480.7C230.28 480.016 231.046 479.675 232.028 479.675C232.98 479.675 233.732 480.033 234.284 480.751C234.84 481.469 235.119 482.468 235.119 483.747V483.871ZM233.764 483.718C233.764 482.824 233.573 482.118 233.192 481.601C232.812 481.083 232.289 480.824 231.625 480.824C230.805 480.824 230.189 481.188 229.779 481.916V485.702C230.185 486.425 230.805 486.786 231.64 486.786C232.289 486.786 232.804 486.53 233.185 486.017C233.571 485.5 233.764 484.733 233.764 483.718ZM236.876 487.035C236.876 486.801 236.945 486.606 237.082 486.449C237.223 486.293 237.433 486.215 237.711 486.215C237.99 486.215 238.2 486.293 238.341 486.449C238.488 486.606 238.561 486.801 238.561 487.035C238.561 487.26 238.488 487.448 238.341 487.599C238.2 487.751 237.99 487.826 237.711 487.826C237.433 487.826 237.223 487.751 237.082 487.599C236.945 487.448 236.876 487.26 236.876 487.035ZM240.832 487.035C240.832 486.801 240.9 486.606 241.037 486.449C241.178 486.293 241.388 486.215 241.667 486.215C241.945 486.215 242.155 486.293 242.296 486.449C242.443 486.606 242.516 486.801 242.516 487.035C242.516 487.26 242.443 487.448 242.296 487.599C242.155 487.751 241.945 487.826 241.667 487.826C241.388 487.826 241.178 487.751 241.037 487.599C240.9 487.448 240.832 487.26 240.832 487.035ZM244.787 487.035C244.787 486.801 244.855 486.606 244.992 486.449C245.133 486.293 245.343 486.215 245.622 486.215C245.9 486.215 246.11 486.293 246.251 486.449C246.398 486.606 246.471 486.801 246.471 487.035C246.471 487.26 246.398 487.448 246.251 487.599C246.11 487.751 245.9 487.826 245.622 487.826C245.343 487.826 245.133 487.751 244.992 487.599C244.855 487.448 244.787 487.26 244.787 487.035Z" fill="#6C6C80"/>
</svg>
