<svg width="182" height="44" xmlns="http://www.w3.org/2000/svg">

 <g>
  <title>background</title>
  <rect fill="none" id="canvas_background" height="402" width="582" y="-1" x="-1"/>
 </g>
 <g>
  <title>Layer 1</title>
  <path id="svg_1" fill="#7a33cc" d="m72,33.832l0,-22.176l14.976,0l0,4.192l-9.984,0l0,4.352l8.864,0l0,4.096l-8.864,0l0,5.344l10.72,0l0,4.192l-15.712,0z"/>
  <path id="svg_2" fill="#7a33cc" d="m89.9112,25.416c0,-1.216 0.192,-2.3573 0.576,-3.424c0.4054,-1.088 0.9814,-2.0267 1.7281,-2.816c0.7466,-0.8107 1.6533,-1.4507 2.7199,-1.92c1.0667,-0.4693 2.2827,-0.704 3.6481,-0.704c0.8959,0 1.7177,0.0853 2.4637,0.256c0.747,0.1493 1.472,0.3733 2.176,0.672l-0.992,3.808c-0.448,-0.1707 -0.938,-0.32 -1.472,-0.448c-0.533,-0.128 -1.1304,-0.192 -1.7917,-0.192c-1.408,0 -2.464,0.4373 -3.1681,1.312c-0.6826,0.8747 -1.024,2.0267 -1.024,3.456c0,1.5147 0.3201,2.688 0.9601,3.52c0.6613,0.832 1.8026,1.248 3.424,1.248c0.576,0 1.1947,-0.0533 1.8557,-0.16c0.662,-0.1067 1.27,-0.2773 1.824,-0.512l0.672,3.904c-0.554,0.2347 -1.248,0.4373 -2.08,0.608c-0.832,0.1707 -1.7491,0.256 -2.7517,0.256c-1.536,0 -2.8587,-0.224 -3.968,-0.672c-1.1094,-0.4693 -2.0267,-1.0987 -2.7521,-1.888c-0.704,-0.7893 -1.2266,-1.7173 -1.5679,-2.784c-0.32,-1.088 -0.4801,-2.2613 -0.4801,-3.52z"/>
  <path id="svg_3" fill="#7a33cc" d="m121.643,25.384c0,1.3227 -0.192,2.5387 -0.576,3.648c-0.384,1.088 -0.939,2.0267 -1.664,2.816c-0.726,0.768 -1.6,1.3653 -2.624,1.792c-1.003,0.4267 -2.134,0.64 -3.392,0.64c-1.238,0 -2.368,-0.2133 -3.392,-0.64c-1.003,-0.4267 -1.867,-1.024 -2.592,-1.792c-0.726,-0.7893 -1.291,-1.728 -1.696,-2.816c-0.406,-1.1093 -0.608,-2.3253 -0.608,-3.648c0,-1.3227 0.202,-2.528 0.608,-3.616c0.426,-1.088 1.002,-2.016 1.728,-2.784c0.746,-0.768 1.621,-1.3653 2.624,-1.792c1.024,-0.4267 2.133,-0.64 3.328,-0.64c1.216,0 2.325,0.2133 3.328,0.64c1.024,0.4267 1.898,1.024 2.624,1.792c0.725,0.768 1.29,1.696 1.696,2.784c0.405,1.088 0.608,2.2933 0.608,3.616zm-4.864,0c0,-1.472 -0.299,-2.624 -0.896,-3.456c-0.576,-0.8533 -1.408,-1.28 -2.496,-1.28c-1.088,0 -1.931,0.4267 -2.528,1.28c-0.598,0.832 -0.896,1.984 -0.896,3.456c0,1.472 0.298,2.6453 0.896,3.52c0.597,0.8533 1.44,1.28 2.528,1.28c1.088,0 1.92,-0.4267 2.496,-1.28c0.597,-0.8747 0.896,-2.048 0.896,-3.52z"/>
  <path id="svg_4" fill="#7a33cc" d="m132.056,34.152c-1.386,-0.0213 -2.517,-0.1707 -3.392,-0.448c-0.853,-0.2773 -1.536,-0.6613 -2.048,-1.152c-0.49,-0.512 -0.832,-1.12 -1.024,-1.824c-0.17,-0.7253 -0.256,-1.536 -0.256,-2.432l0,-18.528l4.768,-0.768l0,18.336c0,0.4267 0.032,0.8107 0.096,1.152c0.064,0.3413 0.182,0.6293 0.352,0.864c0.192,0.2347 0.459,0.4267 0.8,0.576c0.342,0.1493 0.8,0.2453 1.376,0.288l-0.672,3.936z"/>
  <path id="svg_5" fill="#7a33cc" d="m134.661,25.544c0,-1.4933 0.224,-2.7947 0.672,-3.904c0.47,-1.1307 1.078,-2.0693 1.824,-2.816c0.747,-0.7467 1.6,-1.312 2.56,-1.696c0.982,-0.384 1.984,-0.576 3.008,-0.576c2.39,0 4.278,0.736 5.664,2.208c1.387,1.4507 2.08,3.5947 2.08,6.432c0,0.2773 -0.01,0.5867 -0.032,0.928c-0.021,0.32 -0.042,0.608 -0.064,0.864l-10.816,0c0.107,0.9813 0.566,1.76 1.376,2.336c0.811,0.576 1.899,0.864 3.264,0.864c0.875,0 1.728,-0.0747 2.56,-0.224c0.854,-0.1707 1.547,-0.3733 2.08,-0.608l0.64,3.872c-0.256,0.128 -0.597,0.256 -1.024,0.384c-0.426,0.128 -0.906,0.2347 -1.44,0.32c-0.512,0.1067 -1.066,0.192 -1.664,0.256c-0.597,0.064 -1.194,0.096 -1.792,0.096c-1.514,0 -2.837,-0.224 -3.968,-0.672c-1.109,-0.448 -2.037,-1.056 -2.784,-1.824c-0.725,-0.7893 -1.269,-1.7173 -1.632,-2.784c-0.341,-1.0667 -0.512,-2.2187 -0.512,-3.456zm11.2,-1.824c-0.021,-0.4053 -0.096,-0.8 -0.224,-1.184c-0.106,-0.384 -0.288,-0.7253 -0.544,-1.024c-0.234,-0.2987 -0.544,-0.544 -0.928,-0.736c-0.362,-0.192 -0.821,-0.288 -1.376,-0.288c-0.533,0 -0.992,0.096 -1.376,0.288c-0.384,0.1707 -0.704,0.4053 -0.96,0.704c-0.256,0.2987 -0.458,0.6507 -0.608,1.056c-0.128,0.384 -0.224,0.7787 -0.288,1.184l6.304,0z"/>
  <path id="svg_6" fill="#7a33cc" d="m153.989,12.808l4.768,-0.768l0,4.96l5.728,0l0,3.968l-5.728,0l0,5.92c0,1.0027 0.17,1.8027 0.512,2.4c0.362,0.5973 1.077,0.896 2.144,0.896c0.512,0 1.034,-0.0427 1.568,-0.128c0.554,-0.1067 1.056,-0.2453 1.504,-0.416l0.672,3.712c-0.576,0.2347 -1.216,0.4373 -1.92,0.608c-0.704,0.1707 -1.568,0.256 -2.592,0.256c-1.302,0 -2.379,-0.1707 -3.232,-0.512c-0.854,-0.3627 -1.536,-0.8533 -2.048,-1.472c-0.512,-0.64 -0.875,-1.408 -1.088,-2.304c-0.192,-0.896 -0.288,-1.888 -0.288,-2.976l0,-14.144z"/>
  <path id="svg_7" fill="#7a33cc" d="m174.174,30.504c0.47,0 0.918,-0.0107 1.345,-0.032c0.426,-0.0213 0.767,-0.0533 1.024,-0.096l0,-3.616c-0.192,-0.0427 -0.481,-0.0853 -0.865,-0.128c-0.384,-0.0427 -0.736,-0.064 -1.056,-0.064c-0.448,0 -0.874,0.032 -1.28,0.096c-0.384,0.0427 -0.725,0.1387 -1.024,0.288c-0.298,0.1493 -0.533,0.352 -0.703,0.608c-0.171,0.256 -0.257,0.576 -0.257,0.96c0,0.7467 0.246,1.2693 0.736,1.568c0.512,0.2773 1.206,0.416 2.08,0.416zm-0.384,-13.952c1.408,0 2.582,0.16 3.521,0.48c0.938,0.32 1.685,0.7787 2.239,1.376c0.576,0.5973 0.982,1.3227 1.217,2.176c0.234,0.8533 0.351,1.8027 0.351,2.848l0,9.92c-0.682,0.1493 -1.631,0.32 -2.847,0.512c-1.217,0.2133 -2.689,0.32 -4.417,0.32c-1.087,0 -2.079,-0.096 -2.975,-0.288c-0.875,-0.192 -1.633,-0.5013 -2.273,-0.928c-0.64,-0.448 -1.13,-1.024 -1.472,-1.728c-0.341,-0.704 -0.512,-1.568 -0.512,-2.592c0,-0.9813 0.192,-1.8133 0.577,-2.496c0.405,-0.6827 0.938,-1.2267 1.6,-1.632c0.661,-0.4053 1.418,-0.6933 2.272,-0.864c0.853,-0.192 1.738,-0.288 2.656,-0.288c0.618,0 1.162,0.032 1.631,0.096c0.491,0.0427 0.886,0.1067 1.185,0.192l0,-0.448c0,-0.8107 -0.246,-1.4613 -0.736,-1.952c-0.491,-0.4907 -1.344,-0.736 -2.561,-0.736c-0.81,0 -1.61,0.064 -2.4,0.192c-0.789,0.1067 -1.472,0.2667 -2.047,0.48l-0.609,-3.84c0.278,-0.0853 0.619,-0.1707 1.025,-0.256c0.426,-0.1067 0.885,-0.192 1.375,-0.256c0.491,-0.0853 1.003,-0.1493 1.537,-0.192c0.554,-0.064 1.109,-0.096 1.663,-0.096z"/>
  <path id="svg_8" fill="#29A361" d="m14.642,1.84962l-4.5749,8.73648c-0.29542,0.564 -0.10089,1.2693 0.4375,1.5864l7.1635,4.2197c0.5459,0.3215 1.2398,0.1238 1.5502,-0.4418l8.7562,-15.94976l-10.3344,0c-1.2509,0 -2.4015,0.70953 -2.9981,1.84898z"/>
  <path id="svg_9" fill="#248F55" d="m27.974,0l-8.7558,15.95c-0.311,0.5654 -1.0045,0.7636 -1.5501,0.4423l-1.8698,-1.101c0.4559,0.0761 0.9301,-0.141 1.1715,-0.5814l8.077,-14.7099l2.9272,0z"/>
  <path id="svg_10" fill="#34CB79" d="m37.5549,8.45922l-3.1554,-6.51021c-0.5789,-1.19444 -1.7585,-1.94837 -3.0482,-1.94837l-9.1233,0l7.0048,12.31596c-0.0229,0.0107 -0.046,0.0214 -0.069,0.0321c-0.4406,0.2055 -0.4226,0.8606 0.0285,1.0401l6.0487,2.4072c0.2803,0.1116 0.5948,-0.0335 0.7024,-0.3239l2.3317,-6.29257c0.1724,-0.46547 -0.2803,-0.91462 -0.7202,-0.72031z"/>
  <path id="svg_11" fill="#2FB86E" d="m38.2751,9.17899l-2.3324,6.29251c-0.1071,0.2912 -0.4221,0.4364 -0.7021,0.3243l-1.8302,-0.7287l2.1818,-5.88811c0.124,-0.33393 -0.0741,-0.65911 -0.3583,-0.74441c-0.2707,-0.08132 -0.5018,-0.26504 -0.6283,-0.526l-2.8891,-5.95983c-0.5786,-1.19404 -1.7578,-1.94875 -3.048,-1.94875l2.6829,0c1.2893,0 2.4685,0.75471 3.048,1.94875l3.1552,6.5107c0.4405,-0.19421 0.8925,0.25416 0.7205,0.71954z"/>
  <path id="svg_12" fill="#29A361" d="m31.4594,33.5593c-0.085,-0.3615 -0.535,-0.5163 -0.8096,-0.2318l-4.7276,4.8993c-0.1886,0.1955 -0.1886,0.5123 0,0.7077l4.7458,4.9181c0.2728,0.2827 0.7182,0.1318 0.8078,-0.2235l6.979,0c1.2849,0 2.4608,-0.7482 3.0421,-1.9357l3.9822,-8.1342l-14.0197,0l0,0.0001z"/>
  <path id="svg_13" fill="#248F55" d="m37.3508,33.5594l2.2629,3.5485c0.5116,0.8022 0.5682,1.8274 0.1483,2.6849l-0.9307,1.9007c-0.5804,1.1871 -1.7568,1.9358 -3.0413,1.9358l2.6647,0c1.2845,0 2.4608,-0.7487 3.0423,-1.9358l3.9819,-8.134l-8.1281,0l0,-0.0001z"/>
  <path id="svg_14" fill="#29A361" d="m21.9354,42.6939l0,-8.6583c0,-0.6507 -0.5091,-1.1784 -1.1371,-1.1784l-18.73043,0l4.82025,9.1709c0.59747,1.1368 1.74657,1.8442 2.9956,1.8442l10.91458,0c0.6279,0 1.1371,-0.5275 1.1371,-1.1784z"/>
  <path id="svg_15" fill="#248F55" d="m10.0115,32.858l-4.15969,7.1993l-3.78394,-7.1993l7.94363,0z"/>
  <path id="svg_16" fill="#248F55" d="m21.935,34.0358l0,8.6586c0,0.6506 -0.509,1.178 -1.1367,1.178l-2.9834,0c0.6278,0 1.1368,-0.5274 1.1368,-1.178l0,-8.6586c0,-0.6506 -0.509,-1.178 -1.1368,-1.178l2.9834,0c0.6277,-0.0001 1.1367,0.5274 1.1367,1.178z"/>
  <path id="svg_17" fill="#34CB79" d="m12.7847,25.2066l-0.8411,-6.5599c-0.0416,-0.3241 -0.3288,-0.5518 -0.6415,-0.5088l-6.35426,0.875c-0.4785,0.0659 -0.65682,0.6691 -0.32907,1.0047l-4.01025,5.9901c-0.73528,1.0983 -0.8099,2.5323 -0.19293,3.7061l4.36396,8.3029l7.08585,-12.266c0.0025,0.0019 0.0049,0.0039 0.0075,0.0059c0.4044,0.3181 0.9786,-0.0284 0.9118,-0.55z"/>
  <path id="svg_18" fill="#2FB86E" d="m11.8725,25.7566c-0.002,-0.0021 -0.0048,-0.004 -0.0068,-0.006l-7.08609,12.2657l-1.45734,-2.7725l5.7675,-9.9852l0.15993,-0.277c0.08747,-0.1514 0.25838,-0.2168 0.42553,-0.1832c0.00085,0.0002 0.00169,0.0003 0.00254,0.0005c0.35563,0.0657 0.72033,-0.2413 0.66573,-0.6627l-0.73886,-5.765l1.69686,-0.2332c0.313,-0.043 0.6008,0.1852 0.6423,0.5084l0.8412,6.5608c0.0668,0.5213 -0.5079,0.8676 -0.9125,0.5494z"/>
  <path id="svg_19" fill="#34CB79" d="m47.3959,25.5569l-5.4856,-8.2372c-0.3364,-0.5053 -0.991,-0.6582 -1.5041,-0.3513l-7.1488,4.2751c-0.5674,0.3393 -0.7415,1.104 -0.3803,1.6704l10.0778,15.8012l4.6757,-9.5508c0.5659,-1.156 0.4759,-2.5404 -0.2347,-3.6074z"/>
  <path id="svg_20" fill="#2FB86E" d="m47.6305,29.1645l-4.6764,9.5503l-1.5684,-2.4602l3.4711,-7.0902c0.5659,-1.156 0.4761,-2.5402 -0.2347,-3.6072l-5.2915,-7.9449l1.0758,-0.6436c0.5129,-0.3073 1.1677,-0.1542 1.5038,0.3513l5.4857,8.2373c0.7107,1.067 0.8005,2.4512 0.2346,3.6072z"/>
 </g>
</svg>